<svg xmlns="http://www.w3.org/2000/svg" width="24" height="24" viewBox="0 0 24 24" fill="none">
<path d="M15.2475 16.11L16.9275 14.43C17.1538 14.2066 17.4401 14.0536 17.7516 13.9897C18.0632 13.9258 18.3866 13.9537 18.6825 14.07L20.73 14.8875C21.0291 15.0089 21.2856 15.2162 21.4671 15.4831C21.6486 15.75 21.7471 16.0647 21.75 16.3875V20.1375C21.7483 20.3571 21.7021 20.5741 21.6143 20.7753C21.5265 20.9766 21.3989 21.158 21.2391 21.3087C21.0794 21.4594 20.8908 21.5761 20.6847 21.652C20.4786 21.7278 20.2593 21.7612 20.04 21.75C5.69253 20.8575 2.79753 8.70753 2.25003 4.05753C2.22462 3.82918 2.24784 3.59804 2.31817 3.37931C2.3885 3.16058 2.50434 2.95922 2.65808 2.78848C2.81182 2.61774 2.99997 2.48148 3.21015 2.38868C3.42033 2.29587 3.64778 2.24862 3.87753 2.25003H7.50003C7.82329 2.25099 8.13887 2.34863 8.40618 2.5304C8.67349 2.71217 8.88031 2.96976 9.00003 3.27003L9.81753 5.31753C9.93772 5.61233 9.96838 5.93601 9.90569 6.24814C9.843 6.56027 9.68973 6.847 9.46503 7.07253L7.78503 8.75253C7.78503 8.75253 8.75253 15.3 15.2475 16.11Z" fill="#05A4FD"/>
</svg>